<svg viewBox="0 0 240 90" xmlns="http://www.w3.org/2000/svg"><g fill="#ea6058"><patd d="m94.5 40.8h-8.3v-2.4h5.8v-19.4h-12.8v-2.5h15.3z"/><patd d="m78.9 41.8-1.7-1.7c8-8 8-12.5 7.8-25.7v-5.6h2.4l.1 5.6c.1 13.6.1 18.7-8.6 27.4zm21.5-.9h-2.4v-26.7h14.2v25.4h-8.1v-2.4h5.7v-20.5h-9.4zm54.7-9.2-2.9-2.3h1.3v-2.4h-3.9a49.2 49.2 0 0 1 -3.3-3.9h5.3v-2.4h-3.2l2.1-2.1-1.7-1.7-2.4 2.3 1.5 1.5h-3.1l-.3-.8a18 18 0 0 0 .2-2.2h-2.4a13.3 13.3 0 0 1 -.5 3h-2.8l1.4-1.5-2.3-2.3-1.8 1.7 2.1 2.1h-3v2.4h5.4a26.5 26.5 0 0 1 -2.3 3.9h-5.6v2.4h3.7a18.6 18.6 0 0 1 -3.5 2.9l1.3 2.1a14.9 14.9 0 0 0 2-1.5l2.3 2.2 1.7-1.7-2.2-2.2 1.5-1.8h2.3v11.3l-3.2-.3-.3 2.4 5.9.7v-14.1h4.2l1 .9-3.2 3.2 1.7 1.7 3.3-3.3 2.2 1.8zm-11.7-8.6a32.7 32.7 0 0 0 2.9 3.9h-4.9a24 24 0 0 0 2-3.9zm-12.7-7.7h2.4v-2.2h8.3v2.2h2.4v-2.2h10.2v-2.4h-10.2v-2h-2.4v2h-8.3v-2h-2.4v2h-10.3v2.4h10.3zm-7.8 27.4h2.4v-9.7h4v9.7h2.4v-25.1h-8.8zm2.4-22.7h4v3.5h-4zm0 6h4v4.6h-4z"/><patd d="m137.8 36.4-2.4 2.3 1.7 1.7 2.4-2.3zm8.6 1.7 3 2.9 1.7-1.7-3-2.9zm33.5-29.3h2.4v5.1h-2.4z"/><patd d="m163.5 43.2-1-2.2c5.1-2.4 5-7.4 5-9.8v-18.6h28.6v2.4h-26.1v16.2c0 2.7 0 8.9-6.5 12z"/><patd d="m164.4 23.2-2.8-2.8 1.7-1.7 2.8 2.8zm-1.5 8.5-1.7-1.7 4.4-4.4 1.7 1.7zm10.4-12.8h21.4v2.4h-21.4z"/><patd d="m176.1 37.2-.5-2.4c7.4-1.4 7.3-6.7 7.2-12.3v-1.5h2.5v1.5c0 5.7.1 12.8-9.2 14.7zm13-2.1-3.5-3.4 1.7-1.7 3.5 3.4z"/><patd d="m194.3 44h-6.1v-2.4h3.7v-14h-14.8v16.3h-2.4v-18.7h19.6zm10.7-33.8h2.4v33.8h-2.4zm8.5 22.9h-3.1v-2.4h1.9c0-3.8-.3-7.8-2.8-10.3a1.1 1.1 0 0 1 -.3-1.1 1.2 1.2 0 0 1 .9-.9c2.2-.6 3.8-3.7 4.6-5.9h-4.3v-2.4h6a1.1 1.1 0 0 1 .9.5 1.2 1.2 0 0 1 .3 1c-.1.3-1.7 6.1-5.3 8.4 2.4 3.4 2.4 8.1 2.4 11.9a1.2 1.2 0 0 1 -1.2 1.2zm12.9-22.9h2.4v3.7h-2.4z"/><patd d="m239 20.1h-2.4v-3.4h-17.4v3.4h-2.4v-5.9h22.2zm-16.9.3h11.5v2.4h-11.5zm-4.1 4.8h19.8v2.4h-19.8zm-4.6 18.1v-2.4c5.6 0 9.1-6 9.1-10.1h2.5c0 5.2-4.4 12.5-11.6 12.5zm24.4 0h-8.3a1.2 1.2 0 0 1 -1.2-1.2v-11.3h2.4v10.1h5.9v-4.4h2.4v5.6a1.2 1.2 0 0 1 -1.2 1.2zm-9.7 33.3h-140.3a10.9 10.9 0 0 1 -11-10.9v-.5a10.9 10.9 0 0 1 11-10.9h140.3a10.9 10.9 0 0 1 10.9 10.9v.5a10.9 10.9 0 0 1 -10.9 10.9zm-140.3-19.9a8.5 8.5 0 0 0 -8.5 8.5v.5a8.5 8.5 0 0 0 8.5 8.5h140.3a8.5 8.5 0 0 0 8.5-8.5v-.5a8.5 8.5 0 0 0 -8.5-8.5z"/><patd d="m95.5 69v-7.4h-1.2v-1.3h4v1.3h-1.3v7.4h1.1v1.2h-3.8v-1.2zm1.6-4 3.1-3.4h-1.1v-1.3h3.9v1.3h-1.1l-3 3.4 3.1 4h1.1v1.2h-4.1v-1.2h1.1zm15 1.8h-3.6l-.8 2.2h1.2v1.2h-3.9v-1.2h1.2l2.7-7.5h-1.2v-1.2h5.1v1.2h-1.2l2.7 7.5h1.1v1.2h-3.8v-1.2h1.2zm-.4-1.2-1.3-4.1h-.2l-1.3 4.1zm8.8 3.4v-7.4h-2v2.5h-1.2v-3.8h8v3.8h-1.2v-2.5h-2.1v7.4h1.3v1.2h-4v-1.2zm7.5-3.8a5.2 5.2 0 0 1 1.4-3.6 5.1 5.1 0 0 1 3.7-1.4 4.8 4.8 0 0 1 5.1 5.1 4.9 4.9 0 0 1 -1.4 3.6 5 5 0 0 1 -3.8 1.5 4.8 4.8 0 0 1 -2.6-.7 4.7 4.7 0 0 1 -1.8-1.9 5.8 5.8 0 0 1 -.6-2.6zm1.6 0a4 4 0 0 0 1 2.8 3.1 3.1 0 0 0 2.5 1.1 3.4 3.4 0 0 0 2.5-1.1 3.9 3.9 0 0 0 1-2.7 3.6 3.6 0 0 0 -1-2.7 3.4 3.4 0 0 0 -2.5-1.1 3.1 3.1 0 0 0 -2.5 1.1 3.5 3.5 0 0 0 -1 2.6zm24.3 3.8v-7.5h-1.2v-1.2h2.6v3.8a3.7 3.7 0 0 1 2.3-.9l1.1.2a1.6 1.6 0 0 1 .6.8 4.6 4.6 0 0 1 .2 1.4v3.4h1.1v1.2h-2.5v-5.2l-.3-.5h-.6a3.5 3.5 0 0 0 -1.9.9v3.6h1.2v1.2h-3.8v-1.2zm9.4-2.2a3.5 3.5 0 0 1 1.1-2.6 3.3 3.3 0 0 1 2.5-1 3.5 3.5 0 0 1 2.6 1 3.3 3.3 0 0 1 1.1 2.6 3.5 3.5 0 0 1 -1.1 2.6 3.5 3.5 0 0 1 -2.6 1 3.2 3.2 0 0 1 -2.5-1 3.5 3.5 0 0 1 -1.1-2.6zm1.4 0a2.6 2.6 0 0 0 .7 1.7 2 2 0 0 0 1.5.6 1.9 1.9 0 0 0 1.6-.7 2.1 2.1 0 0 0 .6-1.6 2.5 2.5 0 0 0 -.6-1.7 2.3 2.3 0 0 0 -1.6-.6 2 2 0 0 0 -1.5.6 2.2 2.2 0 0 0 -.7 1.7zm9 3.4v-2.3h1.3v.2a1 1 0 0 0 .5.8 2 2 0 0 0 1.1.3l1-.2a.8.8 0 0 0 .4-.7.5.5 0 0 0 -.3-.5 2.8 2.8 0 0 0 -1.3-.4 3.8 3.8 0 0 1 -2-.7 2 2 0 0 1 -.6-1.4 2 2 0 0 1 .6-1.5 2.6 2.6 0 0 1 1.8-.6 3.8 3.8 0 0 1 1.6.4v-.2h1.2v2.2h-1.2v-.4a1.6 1.6 0 0 0 -1.6-.8 1.1 1.1 0 0 0 -.8.2.7.7 0 0 0 -.4.6c0 .3.1.5.3.5l1.4.4 1.5.3a3.1 3.1 0 0 1 .9.7 2.1 2.1 0 0 1 .3 1.2 1.8 1.8 0 0 1 -.7 1.5 3 3 0 0 1 -1.9.5 2.4 2.4 0 0 1 -1.8-.5v.4zm9.5 1.9v-7.5h-1.1v-1.2h2.5v1a3.1 3.1 0 0 1 2.4-1.2 3.3 3.3 0 0 1 2.4 1 3.5 3.5 0 0 1 1 2.6 3.7 3.7 0 0 1 -1.1 2.7 3.2 3.2 0 0 1 -2.3.9 3.3 3.3 0 0 1 -2.4-1v2.7h1.3v1.2h-3.9v-1.2zm1.4-5.2a2.2 2.2 0 0 0 .2 1.1 2.7 2.7 0 0 0 .7.8 1.9 1.9 0 0 0 1.2.4 2.1 2.1 0 0 0 1.6-.6 2.4 2.4 0 0 0 .7-1.8 1.9 1.9 0 0 0 -.7-1.7 1.8 1.8 0 0 0 -1.5-.7 2.6 2.6 0 0 0 -1.6.7 2.8 2.8 0 0 0 -.6 1.8zm10 2.1v-4.4h-1.1v-1.2h2.4v5.6h1.1v1.2h-3.5v-1.2zm-.2-8a.7.7 0 0 1 .2-.6l.6-.2.6.2a1 1 0 0 1 0 1.2 1 1 0 0 1 -1.2 0 1.4 1.4 0 0 1 -.2-.6zm5.4 3.6v-1.2h.9v-1.1l1.3-1.2v2.3h1.3v1.2h-1.3v3.3a2.2 2.2 0 0 0 .1 1l.4.2.8-.2v1.3h-1.1a1.6 1.6 0 0 1 -1-.2 1 1 0 0 1 -.4-.7 5.3 5.3 0 0 1 -.1-1.4v-3.3zm13.5 4.4v1.2h-2.4v-.8a2.9 2.9 0 0 1 -2.1.9 2.5 2.5 0 0 1 -1.7-.6 2.1 2.1 0 0 1 -.7-1.5 1.9 1.9 0 0 1 .8-1.6 2.6 2.6 0 0 1 1.7-.7 3.3 3.3 0 0 1 1.9.6v-.7a1.9 1.9 0 0 0 -.1-.8 1.2 1.2 0 0 0 -.5-.5l-.9-.2a1.6 1.6 0 0 0 -1.5.8l-1.3-.3a3.1 3.1 0 0 1 3-1.6 2.5 2.5 0 0 1 1.3.2 1.9 1.9 0 0 1 .9.5 2.5 2.5 0 0 1 .4.7v4.4zm-2.5-1.3a2.7 2.7 0 0 0 -1.8-.7 1.6 1.6 0 0 0 -.9.3 1 1 0 0 0 -.4.9.9.9 0 0 0 .4.8 1.2 1.2 0 0 0 .9.3 2.9 2.9 0 0 0 1.8-.8zm6.3 1.3v-7.5h-1.3v-1.2h2.6v8.7h1.1v1.2h-3.7v-1.2zm-208.6-41.5a3.1 3.1 0 0 0 .6.6 3 3 0 0 0 .9.6c1 .2 1.3-.1 1.3-.1l-.4-1.3a1.6 1.6 0 0 1 -.5-1.3l.3-1.3c0-1.1-.6-1.1-.6-1.1l-1.4.3a2.4 2.4 0 0 0 -.6 1.6 1.8 1.8 0 0 0 -.1.6 3.6 3.6 0 0 0 .5 1.4zm9.8-8.8a1.5 1.5 0 0 1 .8.3 1.3 1.3 0 0 0 .6.2h.5s.2-.2-.2-.6a2.1 2.1 0 0 0 -1.2-.4 3.9 3.9 0 0 0 -1.7 0 2.5 2.5 0 0 0 -1 .3s-.6.1-.6.5a.5.5 0 0 0 .5.3 3.2 3.2 0 0 1 1.1-.6zm-1.1 5.2s.3-.5.4-.1a7.4 7.4 0 0 0 .7 1.8s.7.8 2.5.4a1.5 1.5 0 0 0 .9-1.5 2.8 2.8 0 0 0 -.7-1.9s-.4-.8-2-.9c0 0-2.2.1-2.5 1.3a1.5 1.5 0 0 0 -.1 1.1s.6.2.8-.2zm3.5-.6a.4.4 0 0 1 .4.4s.1.4-.5.5a.5.5 0 0 1 -.5-.6s.1-.3.6-.3zm7.3 2.4s.1.4.8.7a3.2 3.2 0 0 0 2.2-.3s.5-.2.7-1.4a3.1 3.1 0 0 0 -.8-2.2s-.5-.7-2.2-.7a4.5 4.5 0 0 0 -2.2 1s-.8.9 0 1.4.8-.1 1-.5.3-.3.3.4a5.3 5.3 0 0 0 .2 1.6zm2.6-2.2s.5-.1.5.5 0 .3-.5.5-.5.1-.5-.6-.1-.4.5-.4zm-7.9 7.6c1.5.5 1.7.2 1.7.2 2.4-.3 2.3-1.6 2.3-1.6l-1.7-.2a1.5 1.5 0 0 1 -2.2-.1c-.7-.7-1.1-.3-1.1-.3l-.3 1.2zm-4.5-17.2c2.3 1.6 3.1.6 3.1.6l.8.2a8 8 0 0 0 2.3 2.5 7 7 0 0 0 4.9 1.1c2.6-1 2.4-1.7 2.4-1.7.5-2.5-1.8-1.6-1.8-1.6-3.2 2.4-4.7-1.2-4.7-1.2l-1-6.2-.9-1.5-1.4.7c-1 1.7-.6 5.1-.6 5.1l-1.1.7a4.3 4.3 0 0 1 -1.4-1.5 8.7 8.7 0 0 1 -1.1-5.2 8 8 0 0 1 .9-3.5c.3-.8-.8-1.3-.8-1.3-2 0-2.2 2.2-2.2 2.2l-.3 2a12.2 12.2 0 0 0 .5 5.1 6.6 6.6 0 0 0 2.4 3.5zm6.6-9.5c1.7 0 1.8-1.3 1.8-1.3a1.6 1.6 0 0 0 -.9-1.9 2.6 2.6 0 0 0 -2.2.2 2.5 2.5 0 0 0 -.3 1.7c0 1 1.6 1.3 1.6 1.3zm8 2.1c6.6 4.2 5.2 12.5 5.2 12.5-.4 4-1.2 4.9-1.2 4.9a15 15 0 0 1 -6 7.6c-1.7 1.7.7 2.5.7 2.5l2.5-1.8a22.5 22.5 0 0 0 3.5-4.3 11.2 11.2 0 0 0 2.2-4.8c.6-1.4.9-.3.9-.3l.3 2.3c-.2 1.8-2.4 2.5-2.4 2.5l.2 1.6 3.6-1.7c1.8-2.6 1.2-4.2 1.2-4.2-.3-2.7-2-3.4-2-3.4a1.2 1.2 0 0 1 -.8-1.2 11 11 0 0 0 -.4-5.5 14.2 14.2 0 0 0 -4.8-8.3c-3.3-2.8-4.4-1.9-4.4-1.9a1.4 1.4 0 0 0 -.4 2.3c.2.4 2.1 1.2 2.1 1.2zm13.8 11.7c1.2.2 1.6-1.6 1.6-1.6.6-2.3 1.1-2.4 1.1-2.4l3.6-3.8a12.6 12.6 0 0 0 3.4-2.9c1.4-1.8 2-.5 2-.5.8 1.6-.5 4.4-.5 4.4-.7 2.8-1.8 2.9-1.8 2.9-5.2 3.1-5.8 3.6-5.8 3.6a17.8 17.8 0 0 0 -4.9 5.9c-.4 1.5-3.8 8.7-3.8 8.7-1.2 2.5.2 2.7.2 2.7 1.8.9 1.8-.6 1.8-.6l1.8-4.8c2.9-8 5.1-8.9 5.1-8.9 1.3-1.7 5.7-3.7 5.7-3.7a24.5 24.5 0 0 0 4-3.5c2.8-3.2 3.6-2.3 3.6-2.3 2 1.5 0 4.9 0 4.9a19 19 0 0 1 -3 4.2 9 9 0 0 0 -3 3.7c-.8 1.3.3 1.8.3 1.8l1.6-.6a24.1 24.1 0 0 1 2-3 16.3 16.3 0 0 0 2.5-2.6l1.3-1.8c3.5-4.8 1-7.7 1-7.7-1.7-2.5-4.8-.8-4.8-.8l-1.2.1a9.4 9.4 0 0 0 .2-1.8c.4-3.5-2.3-3.5-2.3-3.5-2.3 0-4.2 2.2-4.2 2.2l-4.4 3.8a12.4 12.4 0 0 0 -4.3 6.1c-.8 1.8 1.2 1.8 1.2 1.8zm19.6 1a1.4 1.4 0 0 0 -1.5 1.1 6.8 6.8 0 0 1 -1.4 3.9l-3.2 3.2c-1.5 1.5-1.3 2.5-1.3 2.5l1.7.4.8-1a6 6 0 0 1 1.4-1.6 11.5 11.5 0 0 0 2.5-2.3c2.1-3 1.8-4.5 1.8-4.5a1.2 1.2 0 0 0 -.8-1.7zm-2.1 8c-.6 0-.8 2.7-.8 2.7-1.9 6.3-7.4 4.9-7.4 4.9-2.8-1.2-3.3-.2-3.3-.2-.7 1.7.6 2 .6 2a6.1 6.1 0 0 0 3.6 1 8.4 8.4 0 0 0 5.3-1.9 11.3 11.3 0 0 0 2.8-3.6c1.3-2.4 1-3.8 1-3.8 0-1.6-1.8-1.1-1.8-1.1zm-25.3 30.7s-.3-.1-.3.3.8 2 1.1 2.1a1.1 1.1 0 0 0 1.6.6s.4-.4-.3-1.2-2.1-1.5-2.1-1.8zm3.3 2.3a.4.4 0 0 0 .2.5s.7.4.8 0 .2-.4-.3-.7-.5-.1-.7.2zm1.5 0s-.1.4.5.4l.6-.2s.3-.2-.3-.4a.7.7 0 0 0 -.8.2zm1.3-.1s-.1.2.2.4a2.1 2.1 0 0 0 .8 0s.5-.2 0-.7-1-.1-1 .3zm1.8-.1c-.2.4.5.5.5.5l.4-.4zm1.6.3c.1.2.4.1.4.1l.2-.5-.9.2zm2.8-1.4a.6.6 0 0 0 -.6.3c-.3 0-.2 1.1-.2 1.1l.5.4a1.2 1.2 0 0 0 1 .3 1.7 1.7 0 0 0 1.1-.8 3.9 3.9 0 0 0 1.4-2c.1-1.1-.8-.6-.8-.6l-1.4 1.7-.7.7-.1-.6zm.5-21.7s-3.8-1.1-3.8 1.2c0 0-.3 1.6 3.3 1.2 0 0 4.5 1.2 5.9 5 0 0 1.9 1.9 1.4 7.2a12 12 0 0 1 -2.3 6.4 5.7 5.7 0 0 1 -1.7 2.1 1.2 1.2 0 0 0 -.6 1s.3 1.7-1.1 1.7-.9.1-1.2-.2-.3-.2-.5 0-.2.5-1 .4a.8.8 0 0 1 -.8-.1s-.4-.2-.6 0-.2.5-1.2.5-1 0-1.2-.4a.4.4 0 0 0 -.6 0s-.2.4-1.2.4-1-.1-1-.3-.5-.3-.7.1a.8.8 0 0 1 -.9.6s-.7 0-.8-.3-.6-.3-.7.1-.2.3-1.1.3-1.3.2-.9-1.8v-1.3a1.1 1.1 0 0 0 -.3-.7 13.8 13.8 0 0 1 -1.5-3.7 3 3 0 0 1 -.3-1.1v-.4h.1a1.7 1.7 0 0 1 .8.6s.2.4 1.5 1.1 2.2.9 2-1.2a2.6 2.6 0 0 0 -1.3-1.6 4 4 0 0 0 -2.2-.5s-1.4-.1-1.2-.3h-.2a1.6 1.6 0 0 1 1-1.7s3.3-1.5 6.8-11.7c0 0 .3-1.9 1-.8a1.1 1.1 0 0 0 1.5 0 1.5 1.5 0 0 0 -.3-2.2 2.4 2.4 0 0 0 -2.4-.8s-.9-.4-1.3 1.3c0 0-.8.5-.8 2.7 0 0-2.4 7.9-7.3 10.4 0 0-.5.2-.7 1.7s.3 2.9-.7 2.9a7.4 7.4 0 0 0 -2.6 4.7s.3 1.2-.4 1.6a1.1 1.1 0 0 0 0-1h-.2c.1-.1.3-.5-.1-1.4s0-.2-.4-.4-.3.1-.3.7.2.2-.4.2-.9-.3-.5.5l.5.4s.4.2 0 .5l-.6.2s-.5.3.1.5.4-.1.4.3 0 .8.4.9.2.2.4-.2.3-.8.6-.1a.2.2 0 0 0 .2.2v-.2h.5s.2-.6.3-.1.2.4-.3.4-.5.8.3.8h.6a1 1 0 0 1 .2.7.4.4 0 0 0 .2.3s.3.1.4-.3l.2-.4s.4-.4.7-.1-.1.2.4.2.3 0 .1-.6-.3-.6.1-.8a.8.8 0 0 0 .7 0s.2-.3-.3-.6-.5-.1-.3-.4.7-.4.5-.6-.1-.2-.8.1-.6.5-.7 0-.4.1.1-1.8c0 0-.1-.3.3-1.1a1.7 1.7 0 0 0 .1-.7s.1-.7.6-.5.3 0 .6 1.3a2.4 2.4 0 0 0 .6 1.1s.1-.1.3.8l.3.7s.3.4-.2 1.2-.6 2 .4 2.9 1.2 1.2 2 1 .2-.2.4.5 2.8 6 5.2 8.9a9.8 9.8 0 0 0 1 3.3l.7 1.9a30 30 0 0 0 2.3 3.3 2.1 2.1 0 0 1 .3 1.8 3.4 3.4 0 0 0 3.8 3.4s2.6.4 3.7-3.4a29.9 29.9 0 0 0 1.8-10.6s0-1.5-2-3.6c0 0-.3.2-.3-1.3a11.6 11.6 0 0 0 .4-4.5s-.1-1.1.1-1.1 1.3-.4 1.3-.9a3.5 3.5 0 0 0 .2-2.2s2.9-3.3 3.2-4.7a15.7 15.7 0 0 0 .7-11.3s-2.6-7.3-8.7-8.2zm1.2 48.2a1.6 1.6 0 0 1 -1.7 1.5c-1.7 0-1.2-3.4-1.2-3.4a2.4 2.4 0 0 1 -.5-1.2c-2.5-2.1-3.9-7.7-3.9-7.7a37 37 0 0 1 -4.6-8.4l.7-.7 1.1-.4.7-.1a3.3 3.3 0 0 0 1.3.1 1.1 1.1 0 0 1 1.3-.2c.3.6 1.9.1 1.9.1a1.7 1.7 0 0 1 1.2-.3c.4.2.5 0 .6 0h.7l.2-.2c.3-.2.4 0 .4 0h.4a.9.9 0 0 1 .9 1v4.1c-1.3 2.5.6 3.7.6 3.7 1.9 1.9 1.4 2.3 1.4 2.3.3 3.9-1.5 9.8-1.5 9.8zm-19.8-34.9s2.1-2.2 1.3-3.7c0 0-1.1-1.2-2.6 1.2 0 0-3.4 7-10.1 8.5a10.6 10.6 0 0 0 -4.9 1.7 2.6 2.6 0 0 1 -2.8-.1 2.2 2.2 0 0 1 1.1-3.2s5.6-3.8 7.9-7.3c0 0 5.9-7.5 10.2-10 0 0 4.3-2.7 5.6 1.2 0 0 2.9 1.6 2.2-1.2 0 0 .1-3.6-5.3-3.6 0 0-3 .4-4.2 1.6l-3.8 3-1.7 2.1-2.6 3s-4.4 5-6.2 6.2l-2.8 2.5s-4 2.5-3.3 5.1c0 0 0 3.1 3.9 3.1 0 0 .6.3 3-.5a20.8 20.8 0 0 1 4.9-1.5s1.5.2 4.1-1.9a19.8 19.8 0 0 0 6.1-6.2zm-14.8 10s4.9 1 6.4.5.8.2.6-2.6zm-11.3-8.5s-1.3-2.6 2.3-2.1a23.3 23.3 0 0 1 2.5 1.9s1.2 2 2.8 0c0 0 8.2-6.6 10.7-11.9 0 0-.5-7-9.3-7l-.5-.8a2 2 0 0 1 -.7-1.3 5.4 5.4 0 0 1 -.2-2.7 9.4 9.4 0 0 0 0-1.9 7.1 7.1 0 0 0 -.8-2.2 9.8 9.8 0 0 0 -1-2.1c-.9-.9-1.1-4.2-1.1-4.2a11 11 0 0 1 .6-5.1 19.5 19.5 0 0 1 1.4-3.4c.6-2.2-1.6-1.6-1.6-1.6a3.5 3.5 0 0 0 -1.1 1 17.2 17.2 0 0 0 -1.6 4.7 15.1 15.1 0 0 0 -.1 4.4 13.1 13.1 0 0 0 .7 3.5c.2.1.4 1 .4 1a4.5 4.5 0 0 0 1 2 6.8 6.8 0 0 1 .7 2.5 14.3 14.3 0 0 0 .1 2.9 7.4 7.4 0 0 0 .4 1.9 8.8 8.8 0 0 1 1 2.1c-1.8 1-4.7 3.1-4.5 6.6 0 0-10.8-.1-7.3 10.7 0 0 2.2 3.7 8.3 6.3l1-2s-3.9-1.6-4.1-3.2zm-2.8-2.7s-.8-2.9-.4-3.5.1-1.6 1.4-1.6 1.3-.2 1.4 1.6a5.1 5.1 0 0 1 .5 3.1s-.9 2-2.9.4z"/></g></svg>