<svg xmlns="http://www.w3.org/2000/svg" viewBox="0 0 253 49"><defs><style>.cls-1{fill:#5e5e5e}.cls-2{fill:#0273c5}</style></defs><patd class="cls-1" d="M19.9 35.5a15.1 15.1 0 0 1-1.8 5.4c3 1.2 7 3.6 7 5a1.7 1.7 0 0 1-1.8 1.5 1.7 1.7 0 0 1-1.1-.5 20.9 20.9 0 0 0-5.6-4c-3.9 4.2-10.4 5-13.7 5a1.5 1.5 0 0 1-1.7-1.5c0-.7.5-1.3 1.6-1.3 4.6 0 8.5-1 11-3.3a25.7 25.7 0 0 0-4.2-.8c-.5 1.1-.9 2-2.2 2-.8 0-1.4-.5-1.4-1.2a1.5 1.5 0 0 1 .1-.6 42.4 42.4 0 0 0 2.5-5.7H2.3a1.3 1.3 0 1 1 0-2.5h7.1l1-3.3a1.5 1.5 0 0 1 1.5-1c.8 0 1.5.3 1.5 1.1l-.8 3.2h12.7a1.3 1.3 0 1 1 0 2.5zm-4.4-10.2h7a3.5 3.5 0 0 1 3.4 3v1.5c0 1 0 2.3-1.7 2.3a1.4 1.4 0 0 1-1.6-1.3c0-2.6 0-3-1.9-3l-7.8-.1H6.8c-1.7 0-1.9.5-2 1.6v1.4A1.4 1.4 0 0 1 3.2 32a1.4 1.4 0 0 1-1.5-1.3v-1.1-1.4c.1-1.4 1.2-2.8 3.6-2.9h7V23a1.4 1.4 0 0 1 1.6-1.3 1.4 1.4 0 0 1 1.6 1.3zm-3.7 10.2l-1.3 3.3a28.3 28.3 0 0 1 4.8 1 11.7 11.7 0 0 0 1.4-4.3zM34.9 43.1a1.6 1.6 0 0 1-1.7-1.4 1.7 1.7 0 0 1 .5-1.2 14.6 14.6 0 0 0 3.5-6 1.5 1.5 0 0 1 1.4-1 1.6 1.6 0 0 1 1.7 1.4c0 1.2-2 5.7-3.8 7.5a2.2 2.2 0 0 1-1.6.7zM48 47.6c-3.2 0-6-.4-6-3.9l.3-13.5a1.6 1.6 0 0 1 3.1 0l-.3 13.1c0 1.3 1 1.6 3 1.6 2.6 0 4.4-.2 4.4-3.4A1.4 1.4 0 0 1 54 40a1.6 1.6 0 0 1 1.8 1.7c0 5.9-4.6 5.9-7.8 5.9zm1.7-19.4a20.6 20.6 0 0 0-5.7-2.7 1 1 0 0 1-.9-1 1.6 1.6 0 0 1 1.7-1.6 22.1 22.1 0 0 1 7 2.8 1.5 1.5 0 0 1 .6 1.2 1.7 1.7 0 0 1-1.7 1.6 1.8 1.8 0 0 1-1-.3zm9 12.1a21.5 21.5 0 0 0-5.2-5 1.3 1.3 0 0 1-.6-1.1 1.5 1.5 0 0 1 1.5-1.4 2 2 0 0 1 1 .3c3.6 2.2 6.5 5 6.5 6.2a1.8 1.8 0 0 1-1.8 1.8 1.7 1.7 0 0 1-1.4-.8zM71 27.6c-1.7-2 1.3-3.5 2.6-1.8a29.5 29.5 0 0 1 3.6 6.8 60.4 60.4 0 0 1 5.4-3.2c2.1-1.1 3.8 1.7 1.4 2.8a46.8 46.8 0 0 0-8.8 5.2c-3 2.5-3.2 4.7-.8 5.8 2.2 1 6.6.3 8.5-.4 2.6-1 3.5 2.5.8 3.2-2.5.7-7.6 1.2-10.7-.2-4.5-2.2-4.3-7 .7-10.7l1-.7a23.5 23.5 0 0 0-3.8-6.8zM113 35.5a14.7 14.7 0 0 1-1.7 5.4c3 1.2 7 3.6 7 5a1.7 1.7 0 0 1-1.8 1.5 1.7 1.7 0 0 1-1.1-.5 20.7 20.7 0 0 0-5.6-4c-3.8 4.2-10.4 5-13.7 5a1.6 1.6 0 0 1-1.7-1.5c0-.7.5-1.3 1.6-1.3 4.6 0 8.5-1 11-3.3a25.9 25.9 0 0 0-4.2-1c-.5 1.2-.8 2-2.1 2-.8 0-1.5-.4-1.5-1.1a1.6 1.6 0 0 1 .2-.7 42.5 42.5 0 0 0 2.5-5.6h-6.4a1.3 1.3 0 1 1 0-2.5h7.2l.9-3.3a1.5 1.5 0 0 1 1.5-1.1c.8 0 1.5.4 1.5 1.2a31 31 0 0 1-.8 3.2h12.8a1.3 1.3 0 1 1 0 2.5zm-4.3-10.2h7a3.5 3.5 0 0 1 3.4 3v1.5c0 1 0 2.3-1.7 2.3-.8 0-1.6-.5-1.6-1.3 0-2.6 0-3-1.9-3l-7.8-.1H100c-1.7 0-1.9.5-2 1.6v1.4a1.6 1.6 0 0 1-3 0v-1.1-1.4c0-1.4 1.2-2.8 3.6-2.9h7V23a1.6 1.6 0 0 1 3.1 0zM105 35.5l-1.3 3.3a28.6 28.6 0 0 1 4.9 1 12 12 0 0 0 1.4-4.3zM129.9 46.8a1.3 1.3 0 1 1 0-2.6h9.4v-3.8h-5.8a1.3 1.3 0 1 1 0-2.5h5.8v-3.4h-5.5a1.3 1.3 0 0 1-1.4-1.3c-1.3 1-2.2 1.5-3 1.5a1.6 1.6 0 0 1-1.7-1.4 1.5 1.5 0 0 1 1-1.4 30 30 0 0 0 9.1-7.7 3.6 3.6 0 0 1 2.8-1.3 4.4 4.4 0 0 1 3 1.3 34.2 34.2 0 0 0 9.4 6.9 1.3 1.3 0 0 1 .8 1.2A1.8 1.8 0 0 1 152 34c-.1 0-.8 0-2.6-1.2a1.7 1.7 0 0 1 .2.5 1.3 1.3 0 0 1-1.5 1.3h-5.7V38h5.7a1.3 1.3 0 0 1 1.4 1.3 1.3 1.3 0 0 1-1.4 1.3h-5.7v3.7h9.4a1.3 1.3 0 0 1 1.4 1.4 1.3 1.3 0 0 1-1.4 1.2zM148.3 32a49.2 49.2 0 0 1-6.6-5.8c-.3-.4-.6-.6-.9-.6s-.5.2-.8.6a47.3 47.3 0 0 1-6 5.8zM175 30.9a22.6 22.6 0 0 1-6.3 11.8c-2.4 2.1-5 1-6.4-1.5-2-3.7.1-9.1 4.3-11.9 3.8-2.5 9.5-2.9 13.4-.6 4.7 2.7 5.5 8 2.8 12.3a13 13 0 0 1-7.5 4.8c-2.7.7-3.7-2.3-1-2.8 2.3-.5 4.7-1.8 5.7-3.3 2.2-3.3 1.4-7.2-1.7-9a8.2 8.2 0 0 0-3.8-1.2 1.4 1.4 0 0 1 .4 1.4zm-7 .5c-2.8 2.1-4.4 6-3 8.3.4.8 1.2 1.3 2 .6 2.2-1.9 4.4-6.6 4.7-9.7a2 2 0 0 1 .3-1 10.4 10.4 0 0 0-4 1.8zM216.6 44.2a1.3 1.3 0 1 1 0 2.6l-11 .2-8.6-.1c-2.8-.1-4-1.4-4-3.6l-.2-7.2c0-3.2 0-6.4.2-9.3 0-1.9 1.5-3.1 3.8-3.2h18.9a1.3 1.3 0 1 1 0 2.6H198c-1.8 0-2.2.4-2.3 2v14.1c0 1.6.7 1.9 2.6 2h6.1l12-.1zm-2.2-8.1L208 36a12 12 0 0 0 6.4 4.6 1.5 1.5 0 0 1 1 1.4 1.4 1.4 0 0 1-1.4 1.4c-1.7 0-5.9-2.7-7.8-5.9a11.4 11.4 0 0 1-8.2 6 1.3 1.3 0 0 1-1.3-1.3 1.3 1.3 0 0 1 1-1.3c3.7-.9 5.5-2.8 6.3-5l-5.8.2A1.1 1.1 0 0 1 197 35a1.2 1.2 0 0 1 1.3-1.2h6.4v-.9-2h-3c-1.5 2.2-2.1 2.3-2.6 2.3-.8 0-1.5-.5-1.5-1a1 1 0 0 1 .4-.8 12 12 0 0 0 2.9-4.3 1 1 0 0 1 1-.6c.8 0 1.6.5 1.6 1.1l-.4 1h9.3a1.2 1.2 0 1 1 0 2.4h-4.7a27.2 27.2 0 0 1-.1 2.8h6.8a1.2 1.2 0 1 1 0 2.4zM242.6 42.7v2.2c0 1.6-.8 3.1-3.6 3.1-1.2 0-2.9 0-2.9-1.4a1 1 0 0 1 1-1.2h.3a13.1 13.1 0 0 0 1.5.1c.7 0 1.2-.2 1.2-1V42c-3.7 0-5.3-.2-5.4-2.6V37a7.8 7.8 0 0 1-2.4 1.1 1.3 1.3 0 0 1-1-.4 17.5 17.5 0 0 1-3.4 9 1.7 1.7 0 0 1-1.4.7 1.4 1.4 0 0 1-1.4-1.2 1.2 1.2 0 0 1 .2-.8 15.8 15.8 0 0 0 3.3-7.7 7 7 0 0 1-2.6 1 1.4 1.4 0 0 1-1.4-1.4 1.1 1.1 0 0 1 .9-1.1 14.4 14.4 0 0 0 3.3-1.4v-2.6a1.4 1.4 0 0 1-1.1.7 1 1 0 0 1-1-.6 6.8 6.8 0 0 0-1.4-2 1 1 0 0 1-.5-.7c0-.6.7-1.1 1.3-1.1 1 0 2.4 1.8 2.7 2.3l-.2-2.7v-.4c0-2.2 1.3-3.2 4-3.2h5.6v-1.1a1.6 1.6 0 0 1 3.2 0v1h8.6c1 0 1.4.6 1.4 1.2a1.3 1.3 0 0 1-1.3 1.3h-8a.7.7 0 0 1 .1.4.8.8 0 0 1 0 .2l-.4 1.1h7.9a1.1 1.1 0 1 1 0 2.2h-5a11 11 0 0 0 2 2.2 10.1 10.1 0 0 0 2-1.6 1 1 0 0 1 .7-.4 1.3 1.3 0 0 1 1.3 1.2c0 .8-1.8 1.8-2.2 2a16.5 16.5 0 0 0 2.8 1.4 1 1 0 0 1 .8 1 1.4 1.4 0 0 1-1.5 1.3c-.6 0-1.3-.4-3-1.5v.9c0 4-.2 4.7-5 4.7zm-10.5 4.8a1.3 1.3 0 0 1-1.4-1.3 1.2 1.2 0 0 1 .9-1.2 12.2 12.2 0 0 0 4.6-2.5 1 1 0 0 1 .6-.2 1.4 1.4 0 0 1 1.2 1.3 1 1 0 0 1-.4.8 13.8 13.8 0 0 1-5.5 3.1zm1.4-16.6a1.2 1.2 0 0 1-1.2-1.2 1.1 1.1 0 0 1 1.3-1h5.6a10.3 10.3 0 0 0 .4-1.5.9.9 0 0 1 0-.3H233c-1 0-1.4.5-1.4 1.2v8.2a1.3 1.3 0 0 1 .3-.3 16 16 0 0 0 3-1.6 6.8 6.8 0 0 0-1.7-1 .9.9 0 0 1-.6-.8 1.3 1.3 0 0 1 1.4-1.1 5.6 5.6 0 0 1 2.6 1.5 11 11 0 0 0 1.7-2.2zm11.6 5.4c0-1-.6-1-3.8-1-3.5 0-4 0-4.1 1v.6h7.9zm0 2.3h-8v.6c.2 1 .6 1 4 1s4 0 4-1zm-4.3-7.8a16.6 16.6 0 0 1-2 2.7h5.4a12.7 12.7 0 0 1-2-2.7zm7.7 16.2a11.1 11.1 0 0 0-3.9-2.4 1 1 0 0 1-.7-1 1.3 1.3 0 0 1 1.2-1.2c.6 0 5.6 1.6 5.6 3.5a1.4 1.4 0 0 1-1.3 1.5 1.2 1.2 0 0 1-.9-.4z"/><patd class="cls-2" d="M15 7.3H5.1a.6.6 0 0 0-.8.7v.9c0 1.5-.1 4.1-1.5 5.8a1 1 0 0 1-.8.4.8.8 0 0 1-1-.8.8.8 0 0 1 .3-.5A6.6 6.6 0 0 0 3 9.1V7.6A1.6 1.6 0 0 1 4.5 6h2a5.8 5.8 0 0 0-.8-1 .4.4 0 0 1-.2-.3c0-.3.5-.6.9-.6a.7.7 0 0 1 .4.1C7 4.3 8.2 5.4 8.2 6h1.5a7.5 7.5 0 0 0 .8-1.6.7.7 0 0 1 .7-.4c.4 0 .9.3.9.8s-.6 1-.7 1.2h3.5a.6.6 0 1 1 0 1.3zM3.5 3.9a.7.7 0 1 1 0-1.4H8v-.8a.8.8 0 0 1 .9-.7.8.8 0 0 1 .8.7v.8H14a.6.6 0 0 1 .7.7.6.6 0 0 1-.7.7zm1.4 11a.6.6 0 1 1 0-1.3h4v-1.2H6.8a.6.6 0 0 1-.6-.5.6.6 0 0 1 .6-.6h2.4v-1.1H7c-1 1.3-1.2 1.5-1.6 1.5s-.8-.3-.8-.7a.5.5 0 0 1 .2-.3A9 9 0 0 0 6.7 8a.6.6 0 0 1 .6-.3c.3 0 .8.2.8.6a.5.5 0 0 1-.1.2c0 .2-.2.3-.3.5h1.4V8a.7.7 0 0 1 .7-.6.7.7 0 0 1 .8.7V9h3.2a.6.6 0 1 1 0 1.2h-3.2v1.1h2.7a.6.6 0 0 1 .5.6.6.6 0 0 1-.6.6h-2.6v1.2h4.2a.6.6 0 1 1 0 1.2zM20.5 10.8a1 1 0 0 1-.9.7.7.7 0 0 1-.7-.6 1 1 0 0 1 0-.3 31.7 31.7 0 0 0 1.2-4.7h-.8a.6.6 0 0 1-.7-.7.7.7 0 0 1 .7-.7h1l.2-2.6a.7.7 0 0 1 .7-.6.8.8 0 0 1 .8.7 24 24 0 0 1-.3 2.5h.9A1.3 1.3 0 0 1 24 5.9a13.7 13.7 0 0 1-.9 4.7c1.4 1 1.4 1.4 1.4 1.6a.8.8 0 0 1-.7.8.8.8 0 0 1-.6-.3 9 9 0 0 0-.7-.7c-1 2-2.7 3-3.3 3a.8.8 0 0 1-.8-.8.6.6 0 0 1 .4-.6 5.7 5.7 0 0 0 2.6-2.5 7.2 7.2 0 0 0-.9-.4zm2-4.7c0-.2-.1-.3-.3-.3h-.6l-.8 3.6 1.1.5a12.2 12.2 0 0 0 .6-3.8zm5.4 4.5h-.8c-.4 0-.5.2-.5.6v2.5a.7.7 0 0 1-.8.6.7.7 0 0 1-.7-.6v-1.4-1.4a1.5 1.5 0 0 1 0-.4.9.9 0 0 1-.3 0 .7.7 0 0 1-.7-.6v-.6-.8c0-.8.5-1.3 1.7-1.3h5.9a1.6 1.6 0 0 1 1.7 1.4V10a.7.7 0 0 1-.8.6.8.8 0 0 1-.4 0 1.5 1.5 0 0 1 0 .4v1.6a1.5 1.5 0 0 1-1.6 1.6c-.6 0-1 0-1-.6a.6.6 0 0 1 .4-.6h.1a.9.9 0 0 0 .3 0 .4.4 0 0 0 .4-.5v-1.2c0-.6-.5-.6-1.5-.6v4a.8.8 0 0 1-1.5 0zm-1.9-6a.6.6 0 0 1-.7-.5.6.6 0 0 1 .7-.5h4.5v-.3c0-.3-.3-.4-.6-.4h-4.3a.6.6 0 0 1-.7-.6c0-.3.2-.6.7-.6h4.7c1.7 0 1.7 1 1.7 2.4s0 2.4-1.7 2.4H25.6a.6.6 0 0 1-.7-.6.6.6 0 0 1 .7-.5h4.3c.3 0 .5-.1.6-.5v-.3zm5.9 5.3c0-1.5 0-1.5-.9-1.5h-4.6c-1 0-1 .2-1 1.5a2 2 0 0 1 1.4-.4h1v-.4a.7.7 0 0 1 1.5 0v.4c1.7 0 2.1 0 2.6.4zM44 4.8a.5.5 0 0 1 0 .1 10.2 10.2 0 0 0 6.1 8.3.8.8 0 0 1 .7.8 1 1 0 0 1-1.1 1c-1.5 0-5-3-6.5-6.6a10.9 10.9 0 0 1-6 6.7 1.1 1.1 0 0 1-.6.1 1 1 0 0 1-1-.9.9.9 0 0 1 .7-.8 9.7 9.7 0 0 0 5.9-9.2L42 2.8a1 1 0 0 1 1.9 0v2zM57.6 14.7c0 .4-.4.6-.8.6s-.8-.2-.8-.6V9.6a16.4 16.4 0 0 1-1.8 2.3 1 1 0 0 1-.6.3.8.8 0 0 1-.9-.8.7.7 0 0 1 .3-.5A15.5 15.5 0 0 0 56 7v-.3h-2a.7.7 0 0 1-.7-.7.7.7 0 0 1 .8-.7H56V3.7l-1.6.2a.7.7 0 0 1-.8-.7.7.7 0 0 1 .7-.7 15 15 0 0 0 4.1-1 1 1 0 0 1 .3 0 .8.8 0 0 1 .8.8c0 .5-.7.7-1.9 1v2h1.7a.7.7 0 0 1 .8.7.7.7 0 0 1-.7.7h-1.8v.8a.6.6 0 0 1 .2 0c.6 0 2 1.1 2 1.2a.7.7 0 0 1 .3.6.8.8 0 0 1-.7.7.7.7 0 0 1-.6-.3 6.2 6.2 0 0 0-1.2-1v6zm6.6-3.7l-4 1a.9.9 0 0 1-.3 0 .7.7 0 0 1-.7-.6.7.7 0 0 1 .5-.7l4.5-1.2V2a.7.7 0 0 1 .8-.6.8.8 0 0 1 .8.6v7.2l1.6-.4h.3a.7.7 0 0 1 .7.7.7.7 0 0 1-.5.6l-2.1.6v4c0 .5-.4.7-.8.7s-.8-.2-.8-.6zm-2.3-2.4a8.7 8.7 0 0 0-1.5-1.1.6.6 0 0 1-.3-.5.8.8 0 0 1 .8-.7A4.9 4.9 0 0 1 63 7.5a.8.8 0 1 1-1 1.1zm.2-3.4A7.1 7.1 0 0 0 60.6 4a.5.5 0 0 1-.2-.4.8.8 0 0 1 .8-.7c.4 0 2.2 1.1 2.2 2a.8.8 0 0 1-.7.7.8.8 0 0 1-.6-.3zM74 9.9a1.7 1.7 0 1 1 1.8-1.7A1.7 1.7 0 0 1 74 9.9zM80.5 11.4a.9.9 0 0 1-1-.8 1 1 0 0 1 .4-.7 12.3 12.3 0 0 0 2.6-3.8.8.8 0 0 1 .8-.5.9.9 0 0 1 1 .8c0 .7-1.7 3.4-3 4.7a1.1 1.1 0 0 1-.8.3zm7.6 1.3c0 1-.8 2.4-3.1 2.4-1.4 0-2.3-.2-2.3-1a.8.8 0 0 1 .8-.8h.2a6 6 0 0 0 1.2.2c.8 0 1.4-.3 1.4-1v-10a.8.8 0 0 1 .9-.8.8.8 0 0 1 .8.9v8.3zm4.6-2.5A13.7 13.7 0 0 0 90 6.7a.7.7 0 0 1-.3-.5.8.8 0 0 1 .8-.7 1 1 0 0 1 .7.2c1.2 1 3.4 3.3 3.4 4.2a1 1 0 0 1-1 .9 1 1 0 0 1-.9-.6zM97.3 15.3a.8.8 0 0 1-.8-.8.7.7 0 0 1 .7-.7c2.8-.3 4-1.8 4.2-3.9a.8.8 0 0 1 .8-.7.8.8 0 0 1 .8.7v.1c-.3 4.7-5.1 5.3-5.7 5.3zm1.2-13c0-.5.4-.7.8-.7s.8.2.8.6v6.3c0 .4-.4.6-.8.6s-.8-.2-.8-.6zm7.3-.6h2.2a1.6 1.6 0 0 1 1.7 1.4V7a1.8 1.8 0 0 1-1.8 1.6h-4.3c-1.1-.1-1.8-.7-1.9-1.6v-.8l.1-3a1.6 1.6 0 0 1 1.8-1.5h2.2zm-2.6 4v1c0 .6.5.7 2.6.7 1.6 0 2.3 0 2.3-.7v-1zm5-1.2v-.9c0-.6-.4-.6-2.5-.6H104c-.8 0-.8.4-.8 1.5zM105 9.2a.7.7 0 0 1 .8.7v2.7c0 .7 0 1 1.6 1s2-.3 2-1.3a.7.7 0 0 1 .8-.7s.9 0 .9.8c0 2.2-1.6 2.6-3.9 2.6-1.5 0-3 0-3-1.8V9.9a.8.8 0 0 1 .8-.7zM118 14.7c0 .4-.5.6-.9.6s-.8-.2-.8-.6V9.6a17.2 17.2 0 0 1-1.8 2.3 1 1 0 0 1-.6.3.8.8 0 0 1-.9-.8.7.7 0 0 1 .3-.5 15.3 15.3 0 0 0 3-3.9v-.3h-2a.7.7 0 0 1-.7-.7.7.7 0 0 1 .8-.7h2V3.7l-1.6.2a.7.7 0 0 1-.8-.7.7.7 0 0 1 .7-.7 15 15 0 0 0 4.1-1 1 1 0 0 1 .3 0 .8.8 0 0 1 .8.8c0 .5-.7.7-1.9 1v2h1.7a.7.7 0 0 1 .8.7.7.7 0 0 1-.7.7H118v.8a.6.6 0 0 1 .2 0c.6 0 2 1.1 2 1.2a.7.7 0 0 1 .3.6.8.8 0 0 1-.7.7.7.7 0 0 1-.6-.3 6.2 6.2 0 0 0-1.2-1v6zm6.5-3.7l-4 1a.9.9 0 0 1-.3 0 .7.7 0 0 1-.7-.6.7.7 0 0 1 .6-.7l4.4-1.2V2a.7.7 0 0 1 .8-.6.8.8 0 0 1 .8.6v7.2l1.6-.4h.3a.7.7 0 0 1 .7.7.7.7 0 0 1-.5.6l-2.1.6v4c0 .5-.4.7-.8.7s-.8-.2-.8-.6zm-2.3-2.4a8.7 8.7 0 0 0-1.5-1.2.6.6 0 0 1-.4-.5.8.8 0 0 1 .9-.6 4.9 4.9 0 0 1 2 1.1.8.8 0 0 1-.4 1.4.8.8 0 0 1-.6-.2zm.2-3.4a6.8 6.8 0 0 0-1.5-1.3.5.5 0 0 1-.2-.4.8.8 0 0 1 .8-.7c.5 0 2.2 1 2.2 1.9a.8.8 0 0 1-.7.8.8.8 0 0 1-.6-.3zM134.8 9.9a1.7 1.7 0 1 1 1.8-1.7 1.7 1.7 0 0 1-1.8 1.7zM154.9 13c0 1-.7 2.1-3 2.1-1.3 0-1.9-.1-1.9-.9a.7.7 0 0 1 .7-.7h.2a7 7 0 0 0 1 0c.7 0 1.2-.1 1.2-.8V6c0-1-.4-1-1.2-1H149a9 9 0 0 1-.4 1.6c.6 0 4 2 4 3a1 1 0 0 1-1 .9.8.8 0 0 1-.6-.4 8.2 8.2 0 0 0-2.7-2.3.5.5 0 0 1-.2 0c-1 2-2.7 3-3.3 3a.9.9 0 0 1-.8-.8.7.7 0 0 1 .4-.6 5.4 5.4 0 0 0 3-4.4h-2.6c-1 0-1.2.3-1.2 1v8.7a.7.7 0 0 1-.9.7c-.4 0-.8-.2-.8-.7V5.4c0-1 1-1.7 2.2-1.7h3.3V2a.8.8 0 0 1 .9-.8.8.8 0 0 1 .8.8v1.7h3.7a2 2 0 0 1 2 1.8v5.3zM162.4 14.7c0 .4-.4.6-.8.6s-.8-.2-.8-.6V9.6a17.2 17.2 0 0 1-1.8 2.3 1 1 0 0 1-.6.2.8.8 0 0 1-.9-.7.7.7 0 0 1 .3-.6 15.2 15.2 0 0 0 3-3.8v-.3h-2a.7.7 0 0 1-.7-.7.7.7 0 0 1 .8-.7h2V3.7l-1.7.3a.7.7 0 0 1-.8-.8.7.7 0 0 1 .7-.6 15 15 0 0 0 4.1-1 1 1 0 0 1 .3 0 .8.8 0 0 1 .8.7c0 .6-.7.8-1.9 1.1v2h1.7a.7.7 0 0 1 .8.6.7.7 0 0 1-.8.7h-1.7v.8a.5.5 0 0 1 .2 0c.6 0 2 1.1 2 1.2a.7.7 0 0 1 .3.6.8.8 0 0 1-.8.8.7.7 0 0 1-.5-.3 6.5 6.5 0 0 0-1.2-1v5.9zM169 11l-4 1a.9.9 0 0 1-.2 0 .7.7 0 0 1-.7-.6.7.7 0 0 1 .5-.7l4.5-1.2V2a.7.7 0 0 1 .8-.6.8.8 0 0 1 .8.6v7.2l1.6-.4h.3a.7.7 0 0 1 .7.7.7.7 0 0 1-.5.6l-2.1.6v4c0 .5-.4.7-.8.7s-.8-.2-.8-.6zm-2.2-2.4a8.7 8.7 0 0 0-1.5-1.2.6.6 0 0 1-.4-.5.8.8 0 0 1 .8-.6 5 5 0 0 1 2.1 1.1.8.8 0 0 1 .3.6.8.8 0 0 1-.7.8.8.8 0 0 1-.6-.2zm.1-3.4a6.6 6.6 0 0 0-1.4-1.3.6.6 0 0 1-.3-.4.8.8 0 0 1 .9-.7c.4 0 2.2 1 2.2 1.9a.8.8 0 0 1-.8.8.8.8 0 0 1-.6-.3zM179.6 9.9a1.7 1.7 0 1 1 1.8-1.7 1.7 1.7 0 0 1-1.8 1.7zM200 11.4h-5a6.3 6.3 0 0 0 5.2 2.3.8.8 0 0 1 .9.7.9.9 0 0 1-1 .9 8.4 8.4 0 0 1-6.3-3.3c-1.7 3.2-6.4 3.4-6.4 3.4a.8.8 0 0 1-.9-.8.7.7 0 0 1 .7-.7c3-.4 4.5-1.2 5.3-2.6h-5a.7.7 0 0 1-.6-.6.7.7 0 0 1 .7-.7h5.2a5.4 5.4 0 0 0 .1-.5.9.9 0 0 1 .3-.7h-5.7a.7.7 0 0 1-.7-.6.7.7 0 0 1 .7-.7h5.5v-1h-3.8a.6.6 0 0 1-.7-.6.7.7 0 0 1 .7-.6h3.8v-1h-4.7a.6.6 0 0 1-.8-.6.7.7 0 0 1 .8-.7h3a6 6 0 0 0-1-1 .5.5 0 0 1-.1-.3c0-.4.4-.7.8-.7.7 0 2 1.5 2 2h1.8a9 9 0 0 0 1-1.6.7.7 0 0 1 .6-.5.9.9 0 0 1 1 .8 3.6 3.6 0 0 1-.9 1.3h3a.6.6 0 1 1 0 1.3h-4.9v1h3.9a.6.6 0 1 1 0 1.2h-3.9v1h5.5a.7.7 0 0 1 .7.7.7.7 0 0 1-.7.7h-5.7a.7.7 0 0 1 .2.5v.7h5.4a.7.7 0 0 1 .7.6.7.7 0 0 1-.7.7zM204.3 12.1a.7.7 0 0 1-.8-.7.8.8 0 0 1 .5-.8 16.5 16.5 0 0 0 5-3.4 2 2 0 0 1 1.5-.6 2.5 2.5 0 0 1 1.6.6 17.8 17.8 0 0 0 5 3 .8.8 0 0 1 .5.7.8.8 0 0 1-.8.8c-.7 0-3.3-1.5-5.7-3.6a.7.7 0 0 0-.5-.3.7.7 0 0 0-.4.3 24.5 24.5 0 0 1-2.9 2.3c.4-.2.6-.2 3-.2h2.9a1.6 1.6 0 0 1 1.6 1.3v2A1.6 1.6 0 0 1 213 15h-4.8a1.5 1.5 0 0 1-1.7-1.4v-.8c0-1.2 0-1.7.4-2.1a8.1 8.1 0 0 1-2.7 1.4zm7.2-9.4h3.8c.9 0 1.9.5 2 1.6V5c0 .5 0 1.2-.9 1.2a.7.7 0 0 1-.8-.7V5c0-.6-.1-.9-1-.9h-8c-1 0-1 .3-1 .7v.9a.7.7 0 0 1-.8.6c-.8 0-.8-.6-.8-1.2 0-1 0-2.2 1.8-2.2h4v-1a.9.9 0 0 1 1.7 0zm-6.2 5.7a.8.8 0 0 1-.8-.7.7.7 0 0 1 .5-.7 6.7 6.7 0 0 0 2.8-2 .6.6 0 0 1 .5-.3.8.8 0 0 1 .8.8.7.7 0 0 1-.2.4c-.7.9-2.9 2.5-3.6 2.5zm8 4.3V12c0-.5-.3-.6-2.4-.6h-2.2c-.7 0-.6.5-.6 1.2 0 .9 0 1.1.7 1.2h3.8c.6 0 .6-.4.6-1.1zm1.6-5a9.9 9.9 0 0 0-2.7-1.8.6.6 0 0 1-.4-.5.7.7 0 0 1 .8-.7 8.8 8.8 0 0 1 3.4 1.9.9.9 0 0 1 .3.6.8.8 0 0 1-.8.8 1 1 0 0 1-.6-.3zM229.2 8.4a16 16 0 0 1-1.8-1.7A14.2 14.2 0 0 1 222 15a1.2 1.2 0 0 1-.7.2.8.8 0 0 1-1-.7.8.8 0 0 1 .5-.7A10.8 10.8 0 0 0 225 9a7.8 7.8 0 0 0-1.6-.6.6.6 0 0 1-.5-.6 1 1 0 0 1 1-.8 5.4 5.4 0 0 1 1.7.6A10.7 10.7 0 0 0 226 5c0-.3-.1-.4-.4-.4H224a19.4 19.4 0 0 1-2.5 4.6 1 1 0 0 1-.8.4.8.8 0 0 1-.9-.7.8.8 0 0 1 .3-.5 14.8 14.8 0 0 0 3-6.3.8.8 0 0 1 .9-.7.8.8 0 0 1 .8.8 6.2 6.2 0 0 1-.3 1h1.6c.9 0 1.6.5 1.6 1.5a9.8 9.8 0 0 1-.2 1 .5.5 0 0 1 .3-.1.6.6 0 0 1 .4.1l1 1V2.2a.7.7 0 0 1 .8-.6.8.8 0 0 1 .8.6v5.5a24.3 24.3 0 0 0 3.7 1.7.8.8 0 0 1 .5.7.9.9 0 0 1-.9.9 12.1 12.1 0 0 1-3.3-1.6v5.1c0 .5-.4.7-.8.7s-.8-.2-.8-.7zM250.7 9.3l-4.9-.1a17.7 17.7 0 0 0 5.7 4 .7.7 0 0 1 .5.7 1 1 0 0 1-1 .8c-.8 0-4-2.3-6-4.4V15c0 .4-.4.6-.8.6s-.8-.2-.8-.6v-4.5a19.4 19.4 0 0 1-5.4 4.4 1.2 1.2 0 0 1-.5.1.8.8 0 0 1-.9-.7.8.8 0 0 1 .5-.7 16.5 16.5 0 0 0 5.6-4.3H238a.7.7 0 0 1-.7-.6.7.7 0 0 1 .7-.7h5.5V5h-4.7a.7.7 0 0 1-.8-.7.7.7 0 0 1 .7-.7h4.8V1.7a.7.7 0 0 1 .8-.7.7.7 0 0 1 .8.7v1.8h4.5a.7.7 0 0 1 .7.7.7.7 0 0 1-.7.7H245v3h.6a8.9 8.9 0 0 0 1.5-2.5.6.6 0 0 1 .5-.4c.5 0 1 .4 1 .8a6.5 6.5 0 0 1-1.4 2.1h3.5a.7.7 0 0 1 .6.7.7.7 0 0 1-.6.7zM241 7.4a6 6 0 0 0-1-1.2.6.6 0 0 1-.3-.5.7.7 0 0 1 .7-.5 2.8 2.8 0 0 1 2 1.7.8.8 0 0 1-.8.9.7.7 0 0 1-.6-.4z"/></svg>